<svg id="Layer_1" data-name="Layer 1" xmlns="http://www.w3.org/2000/svg" viewBox="0 0 41.65 48.76"><defs><style>.cls-1{fill:none;stroke:#1691ba;stroke-width:0.25px;}</style></defs>
<path class="cls-1" d="M614.59,511a8.4,8.4,0,0,1,3.49,1.78c.94.62,1.23,2.22,1.8,3.38,1.83-1.08,2.62-.75,4.16.7a11.3,11.3,0,0,0,1,.82,1.51,1.51,0,0,1,.71,1.67c-.18.89-.25,1.8-.37,2.7-.09.66-.42,1-1.13.91-1.37.09-2.77-.26-4.13.18l-2.36,1a.71.71,0,0,0-.68.82,9.37,9.37,0,0,1-.85,3.5c-1.78.68-2.7.27-3.69-1.66a3.08,3.08,0,0,0-2.68-.94,2.36,2.36,0,0,1-1.93,0c-.32-.15-1-.16-1.12,0-.44.65-1,.1-1.19,0a16.94,16.94,0,0,0-6.22-1.38c-.72,0-.86-.18-.69-.91.26-1.1.88-2.41.28-3.32s-.39-2.16-.8-3.16a8.1,8.1,0,0,1-.48-3.45c0-1,1-1.81,1.57-2.7.07-.11.25-.16.3-.33.37-1.22,1.27-1.24,2.28-1a.12.12,0,0,1,.09.11v0a18.74,18.74,0,0,0,2.92.94c1.31-.15,2.57.34,3.87.42,1.11.07,2-.81,3-.41A10.5,10.5,0,0,1,614.59,511Z" transform="translate(-593.76 -480.13)"/><path class="cls-1" d="M600.93,509.63a4.11,4.11,0,0,1-2.54-4.09,1.57,1.57,0,0,0-1.42-1.91h0l-.07,0c-.08-.17-.13-.47-.25-.5-.93-.26-1-.66-.3-1.29.09-.08.06-.3.08-.46l.16-.21h0c.22-1.28-1-1.05-1.46-1.05-.63,0-1-.19-1.2-.61a1,1,0,0,1,.62-1.21c.89-.46,1.76-1,2.64-1.42a.72.72,0,0,0,.41-1c-.59-1.48-.37-1.81,1.2-1.76.06.16,0,.39.29.43h0c.26.79,1.07.43,1.56.72.32.07.35.55.74.52,0,.47.53.57.61,1,.58-.16,1.29,1,1.8-.17.3-.69,1-1.23.86-2.08.72-.51.27-1.24.12-1.71-.41-1.28.27-1.48,1.24-1.56.21.32.58.17.87.3,1.32.58,1.76.44,2.46-.79a2.55,2.55,0,0,0,1,.55c.53.13.56.56,1.06.67A11.15,11.15,0,0,1,614.9,493c-.24,1-.7,2,.18,3,.28.68.95.74,1.53.94s1.23.15,1.32.76A1.27,1.27,0,0,1,617,499c-.84.28-.12.94-.42,1.31a.23.23,0,0,0-.23.25h0c-1.06-.18-1.7.1-1.45,1.34-1.14-.49-1.35.58-1.88,1.12a1.27,1.27,0,0,0-.78,1.41,4.7,4.7,0,0,1-.22,1.83,4.38,4.38,0,0,1-2.32,3.1c-.46.26.28.75-.32.77l-.33-.09c-.34,1.2-1.32,1.05-2.23,1.05l-.33,0c-.08-.47-.3-.56-.68-.27l-.24,0c-.81-.89-1.89-.72-2.92-.71h0A2.46,2.46,0,0,0,600.93,509.63Z" transform="translate(-593.76 -480.13)"/><path class="cls-1" d="M609.14,509.36a5,5,0,0,0,3.07-4.32,3.83,3.83,0,0,1,1.7-3,4.08,4.08,0,0,1,2.42-1.29,2.76,2.76,0,0,0,.37-.19c-.26-.91-.18-1.48,1-1.33.35,0,.21-.42.21-.68,1-.26,1.58.52,2.24.93s1.12.67,1.66,1l2.36,1.37.26.07c0,.26.14.4.41.37l.52.68c-.07.76.58,1.49.06,2.26-.06-.27-.27-.25-.47-.23-.5.2-.32.6-.29,1h0c-.4,0-.75,0-.51.6-.13,0-.31,0-.37.08s0,.24.14.32l0,.43c-1,0-1.46.53-1.35,1.53a1.09,1.09,0,0,0,.23,1.55c.26.19.21.49.1.76-.38.1-.66.28-.59.74h0c-.17,0-.28,0-.26.23h0a2.42,2.42,0,0,0,.29,2.4.12.12,0,0,1,.16.1.28.28,0,0,1,0,.37c.24,1.17-1.23.58-1.84.64-.6-.32-.83.25-1.29-.42h0c-.08-.18-.17-.36-.25-.55a.75.75,0,0,1-.31-.82c.14-.4-.13-.6-.36-.76-1.3-1-2.26-1.86-3.56-1.93a5.39,5.39,0,0,0-2.28-.22,2.32,2.32,0,0,0-2.33.18c-1,.16-1.59,0-1-1.16C609.39,509.85,609.21,509.57,609.14,509.36Z" transform="translate(-593.76 -480.13)"/><path class="cls-1" d="M621.18,509.68" transform="translate(-593.76 -480.13)"/><path class="cls-1" d="M625.2,505.15c-.33.32,1.6-.77,2.88-.57,1.71.27,2.77,1.65,4.1,2.55a14.39,14.39,0,0,1,2.57,2.14c.83.92.7,1.72-.37,2.28A9.5,9.5,0,0,0,631,514.8c-.47.68-.07,1.4.2,2.08a19.63,19.63,0,0,0,1,2.51c.55,1-.22,1.34-.77,1.38-1.05.08-2.27.46-3.06-.7-.19-.29-.5-.18-.74-.29-.8-.36-1.83-.39-2.16-1.46,0-.07-.11-.12-.17-.17a10.91,10.91,0,0,1-2.64-2.61c-.1-.3.1-.84-.56-.67h0c-.06-.64.26-1.34-.25-1.93v-.73h0c.28.13.4,0,.49-.27a1.25,1.25,0,0,1,.12-.43c.16-.25.56-.59.31-.78" transform="translate(-593.76 -480.13)"/><path class="cls-1" d="M598.87,494.64c-1.28-1-1.63-1.89-.9-3.19.38-.67.41-1.63,1.3-1.93-.43-.83-1.87.19-2-1.16.27-.33,0-.89.6-1.13.38-.16.12-.7-.06-.82-1.2-.74-.82-2-1.15-3.07.39-.72,1.2-.81,1.82-1.17a3,3,0,0,0,1-.73,2.56,2.56,0,0,1,3.59-.77c.95.46,1.58,1.5,2.78,1.52.21,0,.33.28.43.51a15.18,15.18,0,0,0,2.57,3.69c-1.33,1.09-1.19,1.58.75,2.51.79.42,1.12,1.25,1.67,1.89l-.15.57h0a2.78,2.78,0,0,0-3,.41.41.41,0,0,1-.62,0,1.61,1.61,0,0,0-2.22-.05c-.76.48-.33,1.27-.2,1.94a.86.86,0,0,1,0,.23h0l-.09.49c-.78.5-1,1.38-1.47,2.11-.59.94-1.26.36-1.92.11l-.66-.26h0c0-.17,0-.38-.24-.42l0,0c-.36-.43-1-.45-1.38-.75h0A.53.53,0,0,0,598.87,494.64Z" transform="translate(-593.76 -480.13)"/><path d="M626.32,511.6a1.67,1.67,0,0,1,.21.8.82.82,0,0,1-.14.49.94.94,0,0,1-.65.3.56.56,0,0,1-.6-.59,1,1,0,0,1,.17-.57l.07,0a.89.89,0,0,0-.11.37.46.46,0,0,0,.13.34.61.61,0,0,0,.37.13.87.87,0,0,0,.47-.17c.09-.07.14-.13.14-.16a1.16,1.16,0,0,0-.06-.35,1.49,1.49,0,0,0-.17-.38l.15-.25Zm-.53-.64a1.51,1.51,0,0,1,.23.21.58.58,0,0,1-.16.19l-.23-.2A1.56,1.56,0,0,1,625.79,511Z" transform="translate(-593.76 -480.13)"/><path d="M627.39,512.73h0a.43.43,0,0,1-.33-.12c-.12-.12-.12-.26-.12-.54s0-.76,0-1.18a1.53,1.53,0,0,1,.18-.18h0c0,.43,0,.93,0,1.41v.12a.19.19,0,0,0,.15.2l.13,0h0Z" transform="translate(-593.76 -480.13)"/><path d="M627.51,512.48a2,2,0,0,0,1-.36h0a2,2,0,0,0-.62-.13.27.27,0,0,0-.24.1l0,.09-.06.18h0l-.1-.26a.39.39,0,0,1,.43-.35,2,2,0,0,1,.64.17.84.84,0,0,0,.33.06h.17l-.11.21a.54.54,0,0,0-.33.07l-.33.21a1.53,1.53,0,0,1-.85.27h-.1a.13.13,0,0,1-.13-.14.12.12,0,0,1,.13-.11Zm.56-1.42a1.51,1.51,0,0,1,.23.21.58.58,0,0,1-.16.19l-.23-.2Z" transform="translate(-593.76 -480.13)"/><path d="M629.79,512.05c.11.27.21.43.44.43h0v.25h0a.25.25,0,0,1-.19-.07h0v.07a.66.66,0,0,1-.07.3c-.16.28-.33.39-.47.39a1.07,1.07,0,0,1-.49-.15l0-.07a.42.42,0,0,0,.22,0,.76.76,0,0,0,.65-.59.44.44,0,0,0,0-.09,1.1,1.1,0,0,1-.17-.29,1.5,1.5,0,0,1,.11-.22Z" transform="translate(-593.76 -480.13)"/><path d="M630.3,512.48a1.25,1.25,0,0,0,.38,0c.07,0,.11-.05.11-.09a1.63,1.63,0,0,0-.19-.48,2.1,2.1,0,0,1,.15-.22h0a1.37,1.37,0,0,1,.19.6.6.6,0,0,1-.14.36c-.08.09-.22.12-.52.12h0a.13.13,0,0,1-.14-.14s0-.11.14-.11Zm.37.61a1.51,1.51,0,0,1,.23.21.74.74,0,0,1-.16.2l-.23-.21Z" transform="translate(-593.76 -480.13)"/><path d="M631.91,511.72l.14.26a.75.75,0,0,1,.09.37v.22a.89.89,0,0,1-.24.54.46.46,0,0,1-.32.18,1.15,1.15,0,0,1-.51-.15l0-.07a.65.65,0,0,0,.21,0,.86.86,0,0,0,.69-.53.37.37,0,0,0,0-.09.38.38,0,0,0,0-.1,3.45,3.45,0,0,0-.23-.43c0-.08.09-.16.14-.24Zm-.18-.68a1.51,1.51,0,0,1,.23.21.58.58,0,0,1-.16.19l-.23-.2Z" transform="translate(-593.76 -480.13)"/><path d="M615.63,507.75c0-.17-.1-.25-.15-.25a.57.57,0,0,0-.31.14c-.11.09-.19.18-.19.25s.5.16.64.27a.27.27,0,0,1,.09.22.61.61,0,0,1-.16.36,1.21,1.21,0,0,1-.76.32.64.64,0,0,1-.67-.72,1.25,1.25,0,0,1,.1-.48l.08,0a.9.9,0,0,0-.06.34.54.54,0,0,0,.57.57,1.23,1.23,0,0,0,.53-.16c.12-.08.24-.17.24-.2s-.14-.1-.31-.13a.59.59,0,0,1-.35-.12.25.25,0,0,1-.08-.17.72.72,0,0,1,.22-.5.89.89,0,0,1,.49-.28c.06,0,.1,0,.14.1a.49.49,0,0,1,0,.19,1,1,0,0,1-.08.21Z" transform="translate(-593.76 -480.13)"/><path d="M616.51,507.82c.11.27.22.43.44.43h0v.25h0a.26.26,0,0,1-.2-.07h0s0,.05,0,.07a.67.67,0,0,1-.08.3c-.16.28-.33.39-.47.39a1.07,1.07,0,0,1-.49-.15l0-.07a.46.46,0,0,0,.23,0,.76.76,0,0,0,.64-.59.44.44,0,0,0-.05-.09,2.19,2.19,0,0,1-.17-.29c0-.09.08-.16.11-.22Zm-.17-.68.24.21a1,1,0,0,1-.16.19l-.24-.2Z" transform="translate(-593.76 -480.13)"/><path d="M618.2,506.39c0,.08-.09.16-.14.24l-.32.1a6.62,6.62,0,0,0-.64.26h0l.32.12,0,.1c.3.25.5.49.5.7a.59.59,0,0,1-.12.4,1,1,0,0,1-.68.19H617a.13.13,0,0,1-.14-.14s0-.11.14-.11h.12a.93.93,0,0,0,.52-.11c.07,0,.11-.08.11-.1a.52.52,0,0,0-.14-.29,2.8,2.8,0,0,0-.58-.56A.2.2,0,0,1,617,507a.28.28,0,0,1,0-.12.28.28,0,0,1,.15-.12,7.09,7.09,0,0,1,1.05-.39Z" transform="translate(-593.76 -480.13)"/><path d="M618.58,507.82c.11.27.21.43.44.43h0v.25h0a.26.26,0,0,1-.2-.07h0v.07a.67.67,0,0,1-.08.3c-.15.28-.32.39-.47.39a1.06,1.06,0,0,1-.48-.15l0-.07a.42.42,0,0,0,.22,0,.78.78,0,0,0,.65-.59l0-.09a1.1,1.1,0,0,1-.17-.29l.1-.22Z" transform="translate(-593.76 -480.13)"/><path d="M619.09,508.25c.15,0,.26-.1.33-.35a.63.63,0,0,1,.15-.24.38.38,0,0,1,.24-.11c.24,0,.38.33.41.67,0,.18-.11.25-.2.25a1,1,0,0,1-.58-.23h0a.33.33,0,0,1-.34.26h0a.12.12,0,0,1-.13-.14.12.12,0,0,1,.13-.11Zm.69-.08a.59.59,0,0,0,.23.05s.06,0,.06,0c-.05-.29-.18-.42-.31-.42a.28.28,0,0,0-.26.19A.6.6,0,0,0,619.78,508.17Z" transform="translate(-593.76 -480.13)"/><path d="M605.29,519.79c-.21,0-.36-.07-.36-.22a.53.53,0,0,1,.07-.23,1.37,1.37,0,0,1,.62-.54v-.15l.15-.16h0c0,.31,0,.61,0,.91,0,.14,0,.23.07.28a.3.3,0,0,0,.2.05h0V520h0a.37.37,0,0,1-.41-.27A.89.89,0,0,1,605.29,519.79Zm.34-.77c-.34.18-.53.32-.53.42s.12.11.25.11a.8.8,0,0,0,.29,0Z" transform="translate(-593.76 -480.13)"/><path d="M607.63,520h0a.6.6,0,0,1-.51-.32,2.18,2.18,0,0,0-.17-.21h0c0,.3-.17.53-.73.53h0a.13.13,0,1,1,0-.25h.08a.91.91,0,0,0,.47-.11s.1-.07.1-.1a.33.33,0,0,0,0-.13,2.08,2.08,0,0,0-.46-.53l-.14-.14s0-.05,0-.09a.33.33,0,0,1,0-.16l.07-.07a6.89,6.89,0,0,1,1.19-.45h0a1.42,1.42,0,0,1-.14.23l-.44.14a5.82,5.82,0,0,0-.6.25h0a1.89,1.89,0,0,0,.31.13l-.06.11a5.73,5.73,0,0,1,.7.7.48.48,0,0,0,.38.2h0Zm-1.42-1.74a.61.61,0,0,1,0-.12,5.84,5.84,0,0,1,1.07-.39h0l-.07.12a6.34,6.34,0,0,0-1,.4Z" transform="translate(-593.76 -480.13)"/><path d="M607.66,519.73a.56.56,0,0,0,.23-.06c.06,0,.09-.1.09-.24,0-.39,0-.74-.05-1.19v-.1l.17-.17h0c0,.46,0,.94,0,1.54,0,.09.06.22.29.22h0V520h-.05a.37.37,0,0,1-.38-.21h0a.42.42,0,0,1-.38.21h0a.13.13,0,0,1-.14-.13c0-.05,0-.12.14-.12Z" transform="translate(-593.76 -480.13)"/><path d="M608.58,519.73a2,2,0,0,0,1-.35h0a1.71,1.71,0,0,0-.61-.14.31.31,0,0,0-.25.1l0,.1-.06.17h0l-.09-.26A.39.39,0,0,1,609,519a1.94,1.94,0,0,1,.64.17,1.14,1.14,0,0,0,.34.07h.16l-.1.2a.64.64,0,0,0-.34.07l-.33.22a1.51,1.51,0,0,1-.84.26h-.1a.13.13,0,0,1-.14-.13c0-.05,0-.12.14-.12Zm.6.54a1.51,1.51,0,0,1,.23.21.7.7,0,0,1-.16.19l-.23-.2Z" transform="translate(-593.76 -480.13)"/><path d="M612.44,518.85a1.67,1.67,0,0,1,.21.8.85.85,0,0,1-.14.5.93.93,0,0,1-.65.29.56.56,0,0,1-.6-.59,1,1,0,0,1,.17-.57l.07.05a.82.82,0,0,0-.11.36.45.45,0,0,0,.13.34.55.55,0,0,0,.37.13.79.79,0,0,0,.47-.17c.09-.07.14-.12.14-.16a1.16,1.16,0,0,0-.06-.35,1.49,1.49,0,0,0-.17-.38l.15-.25Zm-.53-.63a2.19,2.19,0,0,1,.23.21.7.7,0,0,1-.16.19l-.23-.2A1.56,1.56,0,0,1,611.91,518.22Z" transform="translate(-593.76 -480.13)"/><path d="M613.51,520h0a.43.43,0,0,1-.33-.11c-.12-.12-.12-.26-.12-.55s0-.76-.06-1.17a1.53,1.53,0,0,1,.19-.18h0c0,.43,0,.94,0,1.42v.11a.21.21,0,0,0,.15.21.32.32,0,0,0,.12,0h0Z" transform="translate(-593.76 -480.13)"/><path d="M613.56,519.73c.15,0,.3-.06.33-.17l.06-.21.13-.1h0a1.85,1.85,0,0,0,0,.23.19.19,0,0,0,.07.16.35.35,0,0,0,.24.08h0V520h0c-.19,0-.34-.05-.4-.2h0a.43.43,0,0,1-.39.2h0a.12.12,0,0,1-.13-.13.12.12,0,0,1,.13-.12Zm.22,1a2.05,2.05,0,0,0-.23-.2,1.57,1.57,0,0,1,.15-.19,1.45,1.45,0,0,1,.22.21A.94.94,0,0,1,613.78,520.76Zm.37,0-.23-.2.16-.19a2.18,2.18,0,0,1,.22.21A.68.68,0,0,1,614.15,520.73Z" transform="translate(-593.76 -480.13)"/><path d="M614.44,519.73c.14,0,.25-.1.32-.35a.9.9,0,0,1,.15-.23.35.35,0,0,1,.24-.12c.24,0,.38.33.41.67,0,.18-.11.26-.2.26a1,1,0,0,1-.58-.23h0a.31.31,0,0,1-.33.25h0a.12.12,0,0,1-.13-.13.12.12,0,0,1,.13-.12Zm.68-.08a.6.6,0,0,0,.23.06l.06,0c0-.3-.18-.43-.3-.43a.28.28,0,0,0-.27.19A.6.6,0,0,0,615.12,519.65Z" transform="translate(-593.76 -480.13)"/><path d="M600.26,503.08c-.21,0-.36-.07-.36-.23a.66.66,0,0,1,.06-.22,1.4,1.4,0,0,1,.63-.54v-.15l.15-.16h0c0,.3,0,.61,0,.91,0,.14,0,.23.08.28a.3.3,0,0,0,.2,0h.05v.25h0a.37.37,0,0,1-.41-.27A.89.89,0,0,1,600.26,503.08Zm.34-.77c-.35.17-.53.32-.53.42s.12.11.25.11a1.1,1.1,0,0,0,.29,0Z" transform="translate(-593.76 -480.13)"/><path d="M602.59,503.27h0a.6.6,0,0,1-.5-.32,2.22,2.22,0,0,1-.17-.22h0c0,.31-.17.54-.73.54h0a.13.13,0,0,1-.14-.13c0-.05,0-.12.14-.12h.08a.85.85,0,0,0,.47-.12s.1-.06.1-.09a.33.33,0,0,0,0-.13,2.15,2.15,0,0,0-.47-.53l-.13-.14a.25.25,0,0,1,0-.09.41.41,0,0,1,0-.17l.07-.06a6.89,6.89,0,0,1,1.19-.45h0a1.42,1.42,0,0,1-.14.23l-.45.14c-.23.09-.46.18-.6.25h0a2.4,2.4,0,0,0,.32.13l-.06.11a6.54,6.54,0,0,1,.7.7.47.47,0,0,0,.38.2h0Zm-1.41-1.74a1.12,1.12,0,0,1,.05-.13,6.77,6.77,0,0,1,1.07-.38h0l-.07.12a6.34,6.34,0,0,0-1,.4Z" transform="translate(-593.76 -480.13)"/><path d="M602.63,503a.56.56,0,0,0,.23-.06c.06,0,.09-.1.09-.24,0-.39,0-.74-.05-1.19v-.1l.17-.17h0c0,.46,0,.94,0,1.54,0,.09.06.22.29.22h0v.25h0a.37.37,0,0,1-.38-.21h0a.4.4,0,0,1-.37.21h0a.12.12,0,0,1-.13-.13.12.12,0,0,1,.13-.12Z" transform="translate(-593.76 -480.13)"/><path d="M603.55,503a2,2,0,0,0,1.05-.36h0a1.76,1.76,0,0,0-.62-.14.3.3,0,0,0-.24.1l0,.1-.06.17h0l-.09-.26a.39.39,0,0,1,.42-.35,1.94,1.94,0,0,1,.64.17.84.84,0,0,0,.33.06h.17l-.11.2a.62.62,0,0,0-.33.07l-.33.22a1.51,1.51,0,0,1-.84.26h-.11a.12.12,0,0,1-.13-.13.12.12,0,0,1,.13-.12Zm.6.54a1.51,1.51,0,0,1,.23.21.7.7,0,0,1-.16.19l-.23-.2Z" transform="translate(-593.76 -480.13)"/><path d="M608.7,503.27h-.05c-.19,0-.32,0-.39-.17a2.06,2.06,0,0,1-.31.13,3.17,3.17,0,0,1-.76.12,1.28,1.28,0,0,1-.67-.15.63.63,0,0,1-.28-.53,1.05,1.05,0,0,1,.11-.48l.08,0a.88.88,0,0,0-.06.29.53.53,0,0,0,.26.44,1.3,1.3,0,0,0,.62.12,2.52,2.52,0,0,0,.67-.09l.26-.08.08-.27.13-.1h0a.85.85,0,0,0,0,.22.19.19,0,0,0,.06.17.38.38,0,0,0,.24.08h0ZM607.2,502l-.23-.2.15-.19a2.18,2.18,0,0,1,.22.21A.94.94,0,0,1,607.2,502Zm.37,0-.23-.21a1.45,1.45,0,0,1,.16-.18,2.13,2.13,0,0,1,.22.21A.68.68,0,0,1,607.57,502Z" transform="translate(-593.76 -480.13)"/><path d="M609.86,502.66a1.66,1.66,0,0,0-.61-.14.34.34,0,0,0-.25.1l0,.1-.06.17h0l-.1-.26a.4.4,0,0,1,.43-.35,2,2,0,0,1,.64.17.84.84,0,0,0,.33.06h.17l-.12.2a.68.68,0,0,0-.33.07l-.32.22a1.55,1.55,0,0,1-.86.26h-.09a.13.13,0,0,1-.14-.13c0-.05,0-.12.14-.12h.12a2,2,0,0,0,1-.36Zm-.48-1.05a1.37,1.37,0,0,1,.23.2.78.78,0,0,1-.16.2c-.08-.08-.16-.14-.23-.2A1.08,1.08,0,0,1,609.38,501.61Zm.7,1.18h0c0,.17.14.23.34.23h.06v.25h-.06c-.26,0-.42-.09-.42-.32v-.11Z" transform="translate(-593.76 -480.13)"/><path d="M610.52,503a1.21,1.21,0,0,0,.38,0c.07,0,.12-.05.12-.08a1.66,1.66,0,0,0-.2-.49,2.1,2.1,0,0,1,.15-.22h0a1.37,1.37,0,0,1,.19.6.63.63,0,0,1-.13.36c-.09.09-.23.12-.53.12h0a.13.13,0,0,1-.14-.13c0-.05,0-.12.14-.12Zm.15-1-.23-.2a1.43,1.43,0,0,1,.15-.18,1.37,1.37,0,0,1,.22.2A.94.94,0,0,1,610.67,502Zm.37,0a2.05,2.05,0,0,0-.23-.2l.16-.19a1.45,1.45,0,0,1,.22.21A.68.68,0,0,1,611,502Z" transform="translate(-593.76 -480.13)"/><path d="M603.13,488.5h0a.31.31,0,0,1-.3-.13.86.86,0,0,1-.23.1,2.12,2.12,0,0,1-.57.09,1,1,0,0,1-.5-.11.46.46,0,0,1-.21-.4.78.78,0,0,1,.08-.36l.06,0a.64.64,0,0,0,0,.22.4.4,0,0,0,.19.33.94.94,0,0,0,.47.09,2.08,2.08,0,0,0,.5-.07.6.6,0,0,0,.19-.06l.07-.2.09-.08h0a.51.51,0,0,0,0,.17.14.14,0,0,0,0,.13.3.3,0,0,0,.18.05h0Zm-1.12-.92c-.06-.06-.12-.1-.18-.15l.12-.14.17.16A.75.75,0,0,1,602,487.58Zm.28,0-.17-.15a1.71,1.71,0,0,1,.11-.14l.17.16A.75.75,0,0,1,602.29,487.56Z" transform="translate(-593.76 -480.13)"/><path d="M603.16,488.31a.8.8,0,0,0,.29,0s.08,0,.08-.06a1.14,1.14,0,0,0-.15-.36l.11-.17h0a1,1,0,0,1,.15.45.44.44,0,0,1-.11.27c-.06.07-.16.09-.39.09h0a.09.09,0,0,1-.1-.1.09.09,0,0,1,.1-.09Zm.14.77-.17-.15.12-.14a1.21,1.21,0,0,1,.16.16A.5.5,0,0,1,603.3,489.08Zm.28,0-.17-.16.12-.14.17.16A.87.87,0,0,1,603.58,489.07Z" transform="translate(-593.76 -480.13)"/><path d="M604.76,487v0a.61.61,0,0,0,.12.3l-.09.07c0,.18,0,.35,0,.53a.87.87,0,0,1,0,.28.45.45,0,0,1-.16.25.71.71,0,0,1-.37.12,1.23,1.23,0,0,1-.36-.06v0a1.8,1.8,0,0,0,.65-.19,1,1,0,0,0-.16-.3l-.32-.47c-.1-.14-.15-.22-.15-.27a.46.46,0,0,1,.07-.14h0a2.65,2.65,0,0,0,.24.25l-.05.09.35.55a.5.5,0,0,1,.06.26h0a.3.3,0,0,0,.12-.27,5.08,5.08,0,0,0,0-.59c0-.07,0-.16,0-.23a.15.15,0,0,1,0-.1l.09-.1Z" transform="translate(-593.76 -480.13)"/><path d="M605.44,488.35c-.17,0-.32-.08-.32-.28a.37.37,0,0,1,.09-.25.33.33,0,0,1,.21-.12.25.25,0,0,1,.22.16.8.8,0,0,1,.1.41.68.68,0,0,1-.12.38c-.13.2-.25.28-.37.28a.7.7,0,0,1-.42-.14l0-.05a.41.41,0,0,0,.21.05.58.58,0,0,0,.43-.23.43.43,0,0,0,.14-.24A.63.63,0,0,1,605.44,488.35Zm-.07-.47c-.07,0-.16.08-.16.13s.13.16.25.16l.16,0C605.58,488,605.5,487.88,605.37,487.88Z" transform="translate(-593.76 -480.13)"/><path d="M607.22,488.27c.06,0,.06-.08.11-.23l.09-.05h0a.39.39,0,0,0,0,.15.15.15,0,0,0,.15.16s.08,0,.08-.06a1.32,1.32,0,0,0,0-.24.8.8,0,0,1,.13-.13h0a1.38,1.38,0,0,1,0,.26.42.42,0,0,1,0,.2.27.27,0,0,1-.22.17.24.24,0,0,1-.18-.13h0a.32.32,0,0,1-.23.13.24.24,0,0,1-.24-.28l-.34.12a.45.45,0,0,1,0,.11v.19a.49.49,0,0,1-.11.27.44.44,0,0,1-.33.18.66.66,0,0,1-.35-.14l0,0a.39.39,0,0,0,.18,0,.64.64,0,0,0,.38-.16c.09-.1.14-.17.14-.24a.33.33,0,0,0-.11-.18c0-.05,0-.11,0-.18a3.09,3.09,0,0,1,.54-.17h0a.28.28,0,0,0,0,.09.2.2,0,0,0,.18.19A.18.18,0,0,0,607.22,488.27Z" transform="translate(-593.76 -480.13)"/></svg>